<?xml version="1.0" standalone="no"?>
<!DOCTYPE svg PUBLIC "-//W3C//DTD SVG 20010904//EN"
 "http://www.w3.org/TR/2001/REC-SVG-20010904/DTD/svg10.dtd">
<svg version="1.0" xmlns="http://www.w3.org/2000/svg"
 width="700.000000pt" height="700.000000pt" viewBox="0 0 700.000000 700.000000"
 preserveAspectRatio="xMidYMid meet">
<metadata>
Created by potrace 1.14, written by Peter Selinger 2001-2017
</metadata>
<g transform="translate(0.000000,700.000000) scale(0.100000,-0.100000)"
fill="#000000" stroke="none">
<path d="M3458 6987 c-9 -7 -94 -114 -188 -238 -94 -123 -177 -231 -183 -239
-12 -14 -92 -119 -246 -320 -35 -47 -116 -151 -178 -232 -89 -116 -113 -153
-113 -178 0 -26 39 -85 203 -307 111 -151 234 -319 274 -373 l72 -98 -111
-163 c-526 -778 -650 -959 -657 -963 -3 -2 -87 31 -186 74 -99 43 -192 83
-207 90 -205 88 -284 122 -320 138 -24 11 -140 61 -258 112 -118 51 -233 100
-255 110 -22 9 -85 36 -140 60 -55 23 -107 45 -115 49 -8 5 -71 32 -140 61
-69 29 -132 57 -140 61 -8 4 -96 42 -195 84 -99 42 -199 85 -223 96 -54 25
-82 29 -107 16 -55 -29 -55 -58 3 -207 22 -58 95 -247 162 -420 66 -173 125
-324 130 -335 5 -11 52 -135 106 -275 53 -140 102 -268 109 -285 7 -16 39 -97
70 -180 32 -82 76 -199 100 -260 24 -60 73 -189 110 -285 37 -96 86 -224 110
-285 23 -60 80 -208 126 -327 87 -226 96 -240 153 -240 16 -1 51 20 93 54 38
30 96 76 130 101 61 47 400 277 407 277 2 0 51 28 108 62 147 87 418 219 593
287 248 97 524 168 740 190 95 9 396 7 455 -4 19 -3 76 -13 125 -21 277 -46
594 -157 925 -323 292 -147 674 -394 900 -581 43 -36 63 -44 102 -41 28 2 45
27 83 128 21 54 43 112 50 128 7 17 61 156 120 310 59 154 113 294 120 310 7
17 178 460 380 985 202 525 372 969 379 985 7 17 19 46 26 65 7 19 19 49 26
67 8 17 14 38 14 47 0 31 -24 65 -52 75 -32 11 -45 7 -483 -184 -110 -47 -310
-134 -445 -191 -135 -58 -269 -116 -298 -130 -29 -13 -55 -24 -57 -24 -2 0
-28 -11 -57 -24 -159 -72 -188 -84 -188 -79 0 3 -6 1 -12 -5 -7 -5 -94 -44
-193 -87 -99 -42 -204 -88 -233 -101 -29 -13 -54 -24 -57 -24 -2 0 -34 -14
-72 -31 -37 -16 -77 -34 -88 -39 -11 -4 -37 -16 -58 -25 -21 -9 -40 -15 -41
-13 -3 3 -582 825 -707 1003 l-77 109 27 36 c14 19 28 37 31 40 3 3 19 23 36
45 53 70 164 214 311 405 112 145 143 191 143 215 0 24 -44 92 -192 300 -106
149 -200 280 -208 292 -8 12 -98 138 -200 280 -178 249 -231 322 -269 371 -22
28 -79 38 -103 19z m62 -939 c6 -13 14 -30 20 -38 23 -34 140 -242 140 -248 0
-4 -40 -42 -89 -84 l-90 -78 -88 76 c-48 41 -89 78 -91 82 -1 5 12 34 30 66
18 32 40 70 48 85 44 80 95 161 102 161 5 0 13 -10 18 -22z"/>
<path d="M1208 1632 c-32 -4 -68 -45 -68 -77 0 -12 29 -66 65 -120 36 -55 65
-102 65 -106 0 -4 3 -9 8 -11 4 -1 36 -41 71 -88 192 -253 461 -524 696 -701
379 -286 759 -451 1175 -510 104 -15 405 -19 513 -6 493 55 983 289 1417 676
133 120 289 280 375 385 22 27 45 54 51 60 72 76 284 389 284 420 0 40 -41 79
-80 78 -27 -1 -44 -13 -95 -64 -325 -333 -791 -618 -1260 -771 -158 -52 -376
-104 -470 -113 -22 -2 -50 -6 -62 -9 -117 -28 -607 -27 -793 0 -19 3 -46 7
-60 9 -24 4 -162 30 -205 40 -277 59 -639 207 -910 370 -226 136 -506 354
-613 478 -36 42 -74 64 -104 60z"/>
</g>
</svg>
