<?xml version="1.0" encoding="UTF-8" standalone="no"?>
<!-- Created with Inkscape (http://www.inkscape.org/) -->

<svg
   xmlns:dc="http://purl.org/dc/elements/1.1/"
   xmlns:cc="http://creativecommons.org/ns#"
   xmlns:rdf="http://www.w3.org/1999/02/22-rdf-syntax-ns#"
   xmlns:svg="http://www.w3.org/2000/svg"
   xmlns="http://www.w3.org/2000/svg"
   xmlns:sodipodi="http://sodipodi.sourceforge.net/DTD/sodipodi-0.dtd"
   xmlns:inkscape="http://www.inkscape.org/namespaces/inkscape"
   width="123.32855mm"
   height="123.25522mm"
   viewBox="0 0 436.99094 436.73109"
   id="svg2"
   version="1.1"
   inkscape:version="0.91 r13725"
   sodipodi:docname="sword.svg">
  <defs
     id="defs4" />
  <sodipodi:namedview
     id="base"
     pagecolor="#ffffff"
     bordercolor="#666666"
     borderopacity="1.0"
     inkscape:pageopacity="0.0"
     inkscape:pageshadow="2"
     inkscape:zoom="1.4"
     inkscape:cx="363.24504"
     inkscape:cy="207.71609"
     inkscape:document-units="px"
     inkscape:current-layer="layer1"
     showgrid="false"
     fit-margin-top="0"
     fit-margin-left="0"
     fit-margin-right="0"
     fit-margin-bottom="0"
     inkscape:window-width="1920"
     inkscape:window-height="1017"
     inkscape:window-x="-8"
     inkscape:window-y="-8"
     inkscape:window-maximized="1" />
  <metadata
     id="metadata7">
    <rdf:RDF>
      <cc:Work
         rdf:about="">
        <dc:format>image/svg+xml</dc:format>
        <dc:type
           rdf:resource="http://purl.org/dc/dcmitype/StillImage" />
        <dc:title></dc:title>
      </cc:Work>
    </rdf:RDF>
  </metadata>
  <g
     inkscape:label="Layer 1"
     inkscape:groupmode="layer"
     id="layer1"
     transform="translate(24.231283,-4.5009136)">
    <path
       style="fill:#000000"
       d=""
       id="path4147"
       inkscape:connector-curvature="0" />
    <path
       style="fill:#ffffff"
       d="m 53.206747,440.01856 c -4.38125,-2.32688 -74.22332,-72.40036 -76.09727,-76.34941 -3.13657,-6.60983 -1.75335,-9.0173 14.9307801,-25.98689 C 15.433077,313.8892 15.850667,313.70023 29.708937,320.63652 l 8.23378,4.12113 c 11.75714,-12.14212 19.397943,-18.82628 33.76403,-34.56432 0,-0.46427 -9.03422,-14.24266 -20.07606,-30.61866 -21.50461,-31.89321 -22.82669,-34.64074 -19.55865,-40.64654 0.87173,-1.60201 8.90866,-10.40417 17.85984,-19.56035 24.11555,-24.66785 23.1839,-24.69106 49.29292,1.22816 l 18.018053,17.88707 C 184.10947,151.61391 250.97609,84.744809 317.8427,17.875705 344.38,15.320635 373.5415,5.5266274 399.9097,4.5009136 c 6.78616,0.02651 10.85982,3.259744 12.84995,10.1989054 -3.06351,31.3337 -7.0479,49.880982 -12.99034,85.249277 C 332.9276,166.7933 266.08589,233.63749 199.24417,300.48169 l 18.12221,18.26685 c 25.39009,25.59272 25.33997,23.96343 1.47955,48.09535 -9.15155,9.25568 -17.85433,17.46818 -19.33952,18.25 -12.18463,4.76194 -40.74577,-18.55427 -41.81532,-19.26504 l -31.10404,-20.68652 c -11.33081,11.33081 -22.66161,22.66161 -33.992423,33.99242 l 4.05606,8.38742 c 6.855153,14.17559 7.273753,13.15394 -14.24089,34.75695 -16.54216,16.61011 -18.67606,18.41817 -22.24999,18.85242 -2.52412,0.30669 -5.03749,-0.0956 -6.95306,-1.11298 z m 17.36457,-43.80655 c -3.680467,-7.33864 -7.360933,-14.67728 -11.0414,-22.01592 21.22701,-21.22701 42.454013,-42.45402 63.681023,-63.68103 l 33.74119,22.50016 c 18.55765,12.37509 34.09579,22.50016 34.52921,22.50016 4.90518,-3.78671 8.06919,-7.35794 12.69107,-12.02857 L 139.19565,278.50428 74.218897,213.52175 c -4.221433,4.22143 -8.442867,8.44287 -12.6643,12.6643 l 22.6202,33.79263 22.620203,33.79262 c -20.037804,20.77448 -40.878253,40.78593 -60.758473,61.71228 -3.45012,4.86473 -9.043762,-0.85346 -13.32406,-2.96538 l -11.01243,-5.43357 c -4.005737,3.96393 -8.011468,7.92787 -12.0171999,11.89181 l 24.2542999,24.26947 c 13.33987,13.34821 24.4697,24.26947 24.73296,24.26947 4.461978,-3.71187 7.501137,-6.9492 11.90122,-11.30337 z M 382.79642,34.470823 c -18.40961,2.854387 -32.3919,5.256195 -52.08807,8.539125 C 265.87797,107.84289 201.04758,172.67584 136.2172,237.50878 c 14.66013,14.67149 29.32025,29.34299 43.98038,44.01449 64.81382,-64.83597 129.62764,-129.67193 194.44146,-194.507894 1.26798,-17.451401 8.20162,-35.108582 8.15738,-52.544553 z"
       id="path4193"
       inkscape:connector-curvature="0"
       sodipodi:nodetypes="ssssccssssccccccssccccsssscccscccccccccccscccccccc" />
  </g>
</svg>
