<?xml version="1.0" encoding="UTF-8" standalone="no"?>
<!-- Created with Inkscape (http://www.inkscape.org/) -->

<svg
   xmlns:dc="http://purl.org/dc/elements/1.1/"
   xmlns:cc="http://creativecommons.org/ns#"
   xmlns:rdf="http://www.w3.org/1999/02/22-rdf-syntax-ns#"
   xmlns:svg="http://www.w3.org/2000/svg"
   xmlns="http://www.w3.org/2000/svg"
   xmlns:sodipodi="http://sodipodi.sourceforge.net/DTD/sodipodi-0.dtd"
   xmlns:inkscape="http://www.inkscape.org/namespaces/inkscape"
   width="104.42807mm"
   height="99.573547mm"
   viewBox="0 0 370.02072 352.81965"
   id="svg2"
   version="1.1"
   inkscape:version="0.91 r13725"
   sodipodi:docname="Icon-Map.svg">
  <defs
     id="defs4" />
  <sodipodi:namedview
     id="base"
     pagecolor="#ffffff"
     bordercolor="#666666"
     borderopacity="1.0"
     inkscape:pageopacity="0.0"
     inkscape:pageshadow="2"
     inkscape:zoom="1.4"
     inkscape:cx="273.9555"
     inkscape:cy="177.66912"
     inkscape:document-units="px"
     inkscape:current-layer="layer1"
     showgrid="false"
     fit-margin-top="0"
     fit-margin-left="0"
     fit-margin-right="0"
     fit-margin-bottom="0"
     inkscape:window-width="1920"
     inkscape:window-height="1017"
     inkscape:window-x="-8"
     inkscape:window-y="-8"
     inkscape:window-maximized="1" />
  <metadata
     id="metadata7">
    <rdf:RDF>
      <cc:Work
         rdf:about="">
        <dc:format>image/svg+xml</dc:format>
        <dc:type
           rdf:resource="http://purl.org/dc/dcmitype/StillImage" />
        <dc:title></dc:title>
      </cc:Work>
    </rdf:RDF>
  </metadata>
  <g
     inkscape:label="Layer 1"
     inkscape:groupmode="layer"
     id="layer1"
     transform="translate(-206.14667,-140.17947)">
    <path
       style="fill:#420000;fill-opacity:1"
       d="m 228.11753,308.30452 c -0.53397,0 -0.97086,-0.65979 -0.97086,-1.4662 5.59875,-12.22679 38.26224,-22.91284 47.55591,-26.50256 14.47111,-5.43735 14.05657,-5.76687 -6.66258,-5.29602 -11.92707,-1.60786 -38.078,9.01396 -41.05606,5.04865 -6.15023,-24.71557 -19.66775,-58.57369 -20.83727,-80.74742 5.42734,-18.44759 59.75157,-27.49219 76.95303,-30.02979 8.69016,-1.23249 10.56834,-0.4199 14.4136,6.23593 2.7875,4.82494 7.89532,18.83943 10.66336,29.25741 l 1.85989,7 0.0551,-22.55887 c 0.0407,-16.67118 -1.03961,-28.0155 -0.0942,-29.30847 10.06138,-3.27345 21.21422,-1.28472 32.99868,-4.1053 7.40791,3.93496 4.56454,8.16959 11.44209,14.11355 5.46892,-6.37796 4.93206,-5.7903 9.95024,-13.14091 51.18984,-1.99299 100.30632,-14.37121 153.16868,-16.62505 10.82623,17.22558 19.42671,14.86297 26.07801,19.6913 15.83542,52.83654 20.70849,106.49882 17.78457,178.93355 -5.04784,7.85642 -19.35805,6.96342 -25.45462,9.6122 -1.15882,0.71619 27.69897,7.56279 30.0744,7.58542 14.66683,15.34211 12.57453,74.42892 -0.9456,89.52127 -67.33188,-0.48625 -146.43253,18.71971 -205.29354,31.30293 -15.00292,4.3307 -23.97662,-23.68457 -33.22173,-27.52182 -6.64632,5.29127 -0.56615,26.71969 -2.78344,27.42857 -6.51365,-2.13184 -14.0123,-10.48522 -19.45501,-14.04782 -1.67293,6.48421 4.32944,15.99043 0.0222,20.40349 -15.82655,7.46147 -31.79742,4.5165 -47.00894,9.91057 -7.33215,-95.62684 -16.08833,-129.62159 -29.23596,-184.69461 z m 67.48761,159.57145 c -1.14397,-11.00063 -4.58191,-32.08544 10.81421,-17.25043 3.0551,2.98274 6.90068,5.89237 8.54573,6.46583 2.75112,-6.98112 7.66241,-32.93339 15.27747,-21.53841 7.29216,7.78243 15.41311,24.59098 27.44284,21.8558 77.62461,-22.72948 126.03708,-23.35238 197.37812,-26.62844 2.31396,-15.59476 15.54598,-51.29144 0.55944,-62.19556 -7.06208,-3.12211 -46.67472,-19.96155 -38.79771,-23.26642 7.17089,-3.29726 25.3858,-15.49559 24.66489,-21.54267 11.07382,-10.8093 3.53782,-88.10698 -12.68936,-150.89972 -12.99943,-1.84698 -19.8412,-3.91709 -30.29213,-18.56259 -58.93271,13.17713 -92.88609,17.88615 -123.95496,20.44702 -4.63782,6.41029 -21.78712,34.74861 -23.07941,34.33346 -5.5143,-5.54362 -12.05371,-31.36023 -17.58372,-37.31665 -3.84593,-4.61108 0.28585,-2.18703 -8.30444,-1.49002 -3.03475,10.58265 1.51339,79.30319 -14.16824,68.19858 -10.8496,-12.24835 -22.79888,-42.99274 -33.29869,-55.18015 -16.5212,1.55093 -34.80376,13.16094 -49.97251,18.63872 1.02625,17.6443 1.75649,33.60588 9.57803,52.91155 8.73692,-0.79096 72.91076,6.09766 73.29129,18.08054 2.02802,13.26966 -62.67783,27.04795 -61.13569,35.33317 13.70787,66.5295 21.40157,116.11584 17.48721,164.4273 14.22287,-2.17792 12.09054,-0.58272 28.23763,-4.82091 z M 408.553,423.31085 c -6.99094,-4.36956 -32.58993,-13.89388 -30.94516,-19.88398 0.75757,-2.38691 8.20869,-11.33371 11.04891,-10.24381 4.11632,1.57958 31.06299,20.45617 31.91195,22.6353 1.13947,5.6311 -8.49528,10.77338 -12.0157,7.49249 z M 336.14667,372.5284 c 0,-5.93986 3.48682,-11.54214 9.80486,-7.00959 7.94544,3.62012 26.49085,11.54108 30.83653,19.29356 0.59138,1.54112 -5.34459,9.50496 -7.05875,9.47019 -7.60298,-3.99186 -32.64257,-11.58965 -33.58264,-21.75416 z m -10.45256,-29.79182 c 0.93022,-13.64949 5.62095,-22.4201 16.91281,-35.0392 0,0 9.38482,3.27334 7.80181,6.49307 -1.74845,11.41363 -11.0529,22.63283 -13.83593,33.11407 0,0 -8.45555,0.39047 -10.87869,-4.56794 z m 113.58745,-37.70392 c -2.12995,-1.02349 -2.30947,-1.60628 -1.80552,-5.86134 0.82639,-10.279 8.24154,-17.93952 9.01635,-28.08132 -6.05067,-7.24099 -27.25344,-10.49878 -29.83166,-17.74117 -0.6785,-2.13778 1.77788,-11.48622 3.59268,-13.67292 7.80926,-4.59783 28.67682,13.91196 34.43271,12.34235 3.75321,-6.79929 5.20644,-21.51584 16.79052,-27.77838 4.4318,1.68496 9.67003,7.59455 9.67003,10.90937 -2.61338,9.24024 -6.45067,15.77843 -10.88497,24.62344 6.64636,4.30349 34.15055,16.24546 34.88497,24.49134 -1.96424,2.7592 -8.04523,7.7464 -10.70043,8.03491 -7.86569,0.93998 -28.88105,-16.16246 -32.84386,-14.75326 -4.65666,6.59602 -9.38266,24.25286 -15.9078,27.55506 -3.16779,1.19888 -4.54897,0.82302 -6.41302,-0.0681 z m -81.9799,-12.91402 c -2.16717,-2.39469 -4.61582,-7.10515 -2.405,-9.01935 4.50009,-3.24368 24.75546,-17.71723 25.77029,-9.36703 0.23694,2.04572 3.84555,7.08137 1.28571,8.83364 -6.10882,2.81116 -11.77186,9.25132 -24.651,9.55274 z m 49.71104,-10.57317 c -4.74068,-1.23451 -4.06032,-7.09699 -1.82616,-9.78899 5.11187,-1.90399 26.8186,-2.73351 26.96013,0.28409 0,1.47071 3.42534,5.68937 -3.4296,7.03625 -9.60246,1.88672 -15.79213,4.00825 -21.70437,2.46865 z"
       id="path4147"
       inkscape:connector-curvature="0"
       sodipodi:nodetypes="cccccccsscsccccccccccccccccccccccccccccccccccccccccccsccccccccscccscccccccccccccscscccsscsss" />
  </g>
</svg>
